<?xml version="1.0" standalone="no"?>
<!DOCTYPE svg PUBLIC "-//W3C//DTD SVG 20010904//EN"
 "http://www.w3.org/TR/2001/REC-SVG-20010904/DTD/svg10.dtd">
<svg version="1.0" xmlns="http://www.w3.org/2000/svg"
 width="224.000000pt" height="224.000000pt" viewBox="0 0 224.000000 224.000000"
 preserveAspectRatio="xMidYMid meet">
<metadata>
Created by potrace 1.16, written by Peter Selinger 2001-2019
</metadata>
<g transform="translate(0.000000,224.000000) scale(0.100000,-0.100000)"
fill="#000000" stroke="none">
<path d="M908 2130 c-202 -42 -360 -128 -512 -277 -201 -198 -306 -450 -306
-733 0 -398 217 -751 568 -924 164 -81 289 -111 467 -110 106 0 149 5 231 26
401 103 681 386 774 783 54 233 26 463 -86 688 -119 240 -327 422 -589 515
-150 53 -382 67 -547 32z m832 -525 l115 -115 -492 -492 -493 -493 -270 270
-270 270 119 119 120 120 145 -144 c80 -80 149 -146 153 -147 4 -2 172 161
373 362 201 201 369 365 375 365 5 0 62 -52 125 -115z"/>
</g>
</svg>
